<?xml version="1.0" encoding="iso-8859-1"?>
<!-- Generator: Adobe Illustrator 16.0.0, SVG Export Plug-In . SVG Version: 6.00 Build 0)  -->
<!DOCTYPE svg PUBLIC "-//W3C//DTD SVG 1.1//EN" "http://www.w3.org/Graphics/SVG/1.1/DTD/svg11.dtd">
<svg version="1.1" id="Capa_1" xmlns="http://www.w3.org/2000/svg" xmlns:xlink="http://www.w3.org/1999/xlink" x="0px" y="0px"
	 width="497.199px" height="497.199px" viewBox="0 0 497.199 497.199" style="enable-background:new 0 0 497.199 497.199;"
	 xml:space="preserve">
<g>
	<g>
		<path d="M112.8,384.4c0,0,141.5-61.201,176-93.701S382.5,114.7,382.5,114.7S241,175.9,206.6,208.4
			C172.1,241,112.8,384.4,112.8,384.4z M275.4,275.4c-26.8,26.799-122.4,68.9-122.4,68.9S195.1,248.7,221.9,221.9L275.4,275.4z"/>
		<path d="M248.6,0C110.9,0,0,110.9,0,248.6c0,137.701,110.9,248.6,248.6,248.6c137.701,0,248.599-110.898,248.599-248.6
			C497.199,110.9,386.301,0,248.6,0z M248.6,478.1c-126.2,0-229.5-103.299-229.5-229.5c0-126.2,103.3-229.5,229.5-229.5
			c126.201,0,229.5,103.3,229.5,229.5C478.1,374.801,374.801,478.1,248.6,478.1z"/>
	</g>
</g>
<g>
</g>
<g>
</g>
<g>
</g>
<g>
</g>
<g>
</g>
<g>
</g>
<g>
</g>
<g>
</g>
<g>
</g>
<g>
</g>
<g>
</g>
<g>
</g>
<g>
</g>
<g>
</g>
<g>
</g>
</svg>
